<?xml version="1.0" encoding="UTF-8" standalone="no"?>
<svg
   width="256"
   height="256"
   viewBox="0 0 256 256"
   fill="none"
   version="1.1"
   id="svg1"
   sodipodi:docname="dark-portfolio.svg"
   xml:space="preserve"
   inkscape:version="1.4.2 (f4327f4, 2025-05-13)"
   inkscape:export-filename="world-dark-portfolio.png"
   inkscape:export-xdpi="96"
   inkscape:export-ydpi="96"
   xmlns:inkscape="http://www.inkscape.org/namespaces/inkscape"
   xmlns:sodipodi="http://sodipodi.sourceforge.net/DTD/sodipodi-0.dtd"
   xmlns="http://www.w3.org/2000/svg"
   xmlns:svg="http://www.w3.org/2000/svg"><defs
     id="defs1" /><sodipodi:namedview
     id="namedview1"
     pagecolor="#ffffff"
     bordercolor="#000000"
     borderopacity="0.25"
     inkscape:showpageshadow="2"
     inkscape:pageopacity="0.0"
     inkscape:pagecheckerboard="0"
     inkscape:deskcolor="#d1d1d1"
     inkscape:zoom="0.75292969"
     inkscape:cx="125.50973"
     inkscape:cy="125.50973"
     inkscape:window-width="1920"
     inkscape:window-height="991"
     inkscape:window-x="-9"
     inkscape:window-y="-9"
     inkscape:window-maximized="1"
     inkscape:current-layer="svg1" /><rect
     width="256"
     height="256"
     rx="60"
     fill="#242938"
     id="rect1"
     style="stroke:none;stroke-opacity:1" /><g
     style="fill:#ffffff"
     id="g1"
     transform="matrix(4.8517081,0,0,4.851708,12.879367,8.8949319)"><g
       id="SVGRepo_bgCarrier"
       stroke-width="0" /><g
       id="SVGRepo_tracerCarrier"
       stroke-linecap="round"
       stroke-linejoin="round" /><g
       id="SVGRepo_iconCarrier"><path
         d="M 0,0 H 48 V 48 H 0 Z"
         fill="none"
         id="path1" /><g
         id="Shopicon"><path
           d="M 24,4 C 12.954,4 4,12.954 4,24 4,35.046 12.954,44 24,44 35.046,44 44,35.046 44,24 44,12.954 35.046,4 24,4 Z m 7.96,18 C 31.752,16.775 30.737,12.154 29.234,8.897 34.883,10.861 39.095,15.895 39.861,22 Z M 24,39.9 C 22.787,38.945 20.392,34.164 20.046,26 h 7.908 C 27.608,34.164 25.213,38.945 24,39.9 Z M 20.046,22 C 20.392,13.836 22.787,9.055 24,8.1 25.213,9.055 27.608,13.836 27.954,22 Z M 18.766,8.897 C 17.264,12.154 16.248,16.775 16.04,22 H 8.139 C 8.905,15.896 13.117,10.861 18.766,8.897 Z M 16.04,26 c 0.208,5.225 1.223,9.846 2.726,13.103 C 13.117,37.139 8.905,32.104 8.139,26 Z M 29.234,39.103 C 30.736,35.846 31.752,31.225 31.96,26 h 7.902 c -0.767,6.104 -4.979,11.139 -10.628,13.103 z"
           id="path2" /></g></g></g></svg>
